<svg xmlns="http://www.w3.org/2000/svg" width="15" height="15" viewBox="0 0 15 15"><g><g><path fill="black" d="M12.59 14.757c-.13.033-.24-.006-.338-.092l-.089-.161c-.104-.246-.213-.49-.333-.73a3.1 3.1 0 0 0-.15-.331 2.544 2.544 0 0 0-.15-.322c-.002-.014-.004-.027-.017-.034a.998.998 0 0 0-.095-.211l-.229.21-.017.018a4.87 4.87 0 0 0-.337.337l-.017.017c-.117.107-.23.218-.336.337-.006.006-.01.012-.017.017a.353.353 0 0 1-.35.068 8.939 8.939 0 0 0-.12-.086.486.486 0 0 1-.076-.293c.003-.256 0-.511-.002-.766V8.489l.003-1.022a.362.362 0 0 1 .192-.257.367.367 0 0 1 .37.079c.174.189.368.356.554.53.684.645 1.37 1.285 2.057 1.926.184.172.371.343.556.514.006.006.012.012.02.017.102.115.22.216.335.317.007.006.012.013.02.019.104.112.22.214.334.315l.04.038.314.295.068.06c.05.054.103.105.147.162.042.055.05.123.053.19a.342.342 0 0 1-.252.289l-.185.002c-.426 0-.853.002-1.279-.001-.08-.001-.082.026-.053.086.06.12.117.243.175.365.042.11.091.217.146.32.034.087.068.172.117.252a.285.285 0 0 0 .05.106l.318.706c.026.228-.022.312-.226.409-.047.022-.094.047-.14.07a12.21 12.21 0 0 0-.728.333zm.364-4.27c-.004-.002-.007-.006-.01-.01-.326-.307-.65-.614-.977-.92-.26-.243-.522-.485-.783-.726a4.078 4.078 0 0 0-.345-.325c-.083-.096-.18-.175-.28-.27v4.568c.21-.21.412-.406.614-.605l.193-.172.161-.037c.148.022.241.107.297.243.021.05.035.106.073.149.044.122.1.239.161.353.1.24.21.474.324.708.08.179.162.358.241.538.02.043.04.05.08.029.08-.04.16-.076.24-.113.057-.027.117-.046.17-.084.036-.014.073-.03.112-.043.054-.018.071-.045.04-.101-.042-.073-.076-.151-.112-.226a12.593 12.593 0 0 0-.333-.728 11.602 11.602 0 0 0-.316-.69c-.035-.12-.119-.223-.13-.352.007-.15.09-.248.217-.315.017-.004.038-.003.051-.02l.037-.005h1.183l-.212-.191a12.315 12.315 0 0 0-.566-.53.565.565 0 0 0-.125-.12z"/></g><g><path fill="black" d="M5.494.1c.259-.056.52-.096.78-.137l.229-.021a9.021 9.021 0 0 1 1.15 0l.245.022c.016.013.035.014.054.01.013 0 .025 0 .037.002l.708.129.353.097.355.113a.2.2 0 0 0 .09.035l.264.104.32.144c.25.128.496.267.74.41.02.023.045.039.075.05l.28.194c.244.19.484.383.708.598.314.3.593.63.852.977l.208.304a.08.08 0 0 0 .033.052l.389.707c.05.118.1.235.152.352l.136.354c.115.355.206.716.28 1.082l.052.372c.014.106.007.213.036.317.004.359.014.718-.011 1.078l-.002.036-.002.017-.072.547c-.03.148-.061.295-.09.443-.03.106-.058.212-.087.319-.011.029-.02.059-.032.088-.026.058-.02.13-.073.177-.132-.125-.261-.255-.398-.375-.066-.06-.112-.115-.073-.207.038-.116.067-.233.082-.355.055-.232.09-.468.103-.708.006-.046.009-.093.017-.14.014-.077-.01-.107-.096-.105-.246.006-.493 0-.74.002l-.89.006-.128-.11c-.002-.005-.006-.008-.006-.008-.115-.111-.226-.22-.348-.318a.062.062 0 0 0-.036-.035c-.066-.081-.148-.146-.225-.216a.181.181 0 0 1-.065-.125c.013-.07-.001-.138-.012-.206l-.005-.091a2.835 2.835 0 0 0-.046-.46 1.677 1.677 0 0 0-.04-.3 2.36 2.36 0 0 0-.066-.371 1.845 1.845 0 0 0-.073-.353 5.077 5.077 0 0 0-.21-.747c-.012-.04-.026-.08-.04-.12-.035-.035-.078-.013-.118-.014H7.422c-.031-.001-.03.022-.03.042v.203c0 .837.002 1.673-.001 2.508 0 .069.015.094.088.09.137-.006.276-.002.415-.002h.998c.035 0 .08-.012.08.05-.003.192.013.383-.008.574-.032 0-.064.003-.097.003L7.48 7.183c-.06 0-.09.007-.09.079.003.899.003 1.798.002 2.696 0 .052.01.073.068.073.418-.003.836-.004 1.254-.005.067 0 .136.005.203.002.047-.001.06.017.06.063-.001.167-.001.335.002.502 0 .052-.014.075-.071.072-.07-.004-.14 0-.211.002H7.635c-.076-.005-.152-.01-.228.003-.025.02-.014.049-.014.074v1.608l-.001.733c0 .052.007.088.073.07.067-.018.14-.02.204-.05a1.45 1.45 0 0 0 .355-.123c.246-.1.469-.237.673-.41.084-.052.156-.122.225-.192.02.002.04-.058.059 0v1.062c.012.096-.037.133-.125.146-.055.008-.107.03-.16.046a5.205 5.205 0 0 0-.122.022c-.224.04-.45.08-.673.122l-.054.004a.211.211 0 0 0-.108.013.344.344 0 0 1-.033.002c-.152.006-.304.016-.457.018-.22.003-.438 0-.657 0-.047-.001-.095.005-.14-.006-.181-.044-.367-.057-.551-.084l-.405-.083-.302-.076-.39-.122a37.1 37.1 0 0 0-.354-.136l-.351-.152-.707-.39a.09.09 0 0 0-.053-.033c-.101-.07-.203-.138-.304-.207a8.49 8.49 0 0 1-.784-.66 8.16 8.16 0 0 1-.791-.9l-.194-.281a.165.165 0 0 0-.05-.074c-.141-.24-.277-.482-.405-.73l-.287-.684-.114-.355-.096-.354-.13-.707-.002-.037a.095.095 0 0 0-.011-.07C.164 7.597.156 7.52.15 7.444a9.006 9.006 0 0 1 0-1.15l.02-.227c.039-.22.072-.44.115-.657.055-.276.14-.544.22-.813.096-.23.19-.461.284-.691.124-.244.256-.485.395-.722a.574.574 0 0 0 .083-.128l.157-.23c.027-.033.056-.067.082-.102A7.045 7.045 0 0 1 3.389.98c.236-.143.48-.273.725-.4l.69-.282.393-.122L5.494.1zM2.768 5.304c.06-.356.129-.71.212-1.061l.144-.513c-.01-.034-.033-.013-.052-.014H1.638c-.074.034-.085.112-.12.173a1.906 1.906 0 0 0-.166.332 4.353 4.353 0 0 0-.286.73 1.874 1.874 0 0 0-.101.353 3.713 3.713 0 0 0-.14.708c-.025.104-.035.21-.037.317-.018.042-.006.088-.014.13-.016.077.01.1.09.1.572-.004 1.143-.001 1.713-.002.029 0 .06.014.083-.014l.005-.07.029-.495.003-.037v-.017L2.7 5.87c.025-.081.02-.165.03-.247l.038-.32zm-.811 4.722c.37 0 .74.002 1.11.005.05 0 .07-.014.05-.066-.027-.08-.052-.161-.08-.241a.551.551 0 0 0-.04-.156l-.1-.412c-.064-.333-.12-.667-.165-1.004-.01-.094-.008-.19-.033-.282l-.002-.071-.031-.516c.002-.028.006-.058-.008-.086-.024-.024-.055-.012-.083-.012H.853c-.034 0-.085-.018-.081.049.008.123.008.246.036.367-.003.06.01.12.022.18.033.246.078.49.153.728.02.108.052.213.093.316.076.244.163.482.283.708.05.13.112.256.189.372.018.043.032.089.073.118.112.01.224.007.336.003zm2.51-6.31c-.195-.001-.393-.001-.59-.006-.056-.001-.081.02-.098.073a9.438 9.438 0 0 0-.241.855c-.048.209-.096.418-.113.632-.006.019-.014.038-.017.058l-.082.684c-.008.156-.015.31-.026.467-.005.062.014.08.077.08 1.099-.002 2.196-.002 3.295 0 .082 0 .096-.025.096-.1-.002-.886-.001-1.772-.002-2.658 0-.027.014-.06-.016-.082-.053-.012-.105-.007-.16-.003zm7.077 0c-.155-.001-.311-.002-.468-.005-.046-.001-.063.009-.046.06.05.156.096.314.144.472.082.35.152.705.215 1.06.017.162.038.323.053.484.018.193.033.386.049.579l-.002.07c.004.132-.015.12.127.122h.918c.259 0 .518 0 .777-.002.03 0 .079.016.074-.044-.006-.061.008-.124-.017-.183a3.995 3.995 0 0 0-.091-.671 4.142 4.142 0 0 0-.123-.53 4.982 4.982 0 0 0-.335-.885l-.004-.02a.196.196 0 0 1-.012-.02 3.054 3.054 0 0 0-.248-.474c-.007-.018-.022-.016-.036-.013zm-.781-.68c.01.028.023.049.057.039h1.307a6.421 6.421 0 0 0-.68-.764 5.177 5.177 0 0 0-.627-.526l-.032-.021a2.172 2.172 0 0 0-.322-.223 4.467 4.467 0 0 0-.677-.375 29.075 29.075 0 0 1-.308-.146l-.008.016.284.307c.013.028.03.052.057.069.07.097.142.194.214.29.185.256.336.53.492.805l.157.32.086.21zm-4.543.039c.153.002.307 0 .459.006.069.003.09-.018.089-.088-.003-.421-.001-.841-.002-1.262L6.765.654c0-.038.009-.081-.056-.068a1.968 1.968 0 0 0-.521.155 1.38 1.38 0 0 0-.323.157c-.09.04-.173.094-.248.16a.295.295 0 0 0-.104.074 1.737 1.737 0 0 0-.32.279.06.06 0 0 0-.037.033 2.29 2.29 0 0 0-.293.322c-.02.025-.04.049-.057.073a1.68 1.68 0 0 0-.21.28 4.031 4.031 0 0 0-.394.672c-.056.088-.09.185-.14.284zm3.538 0c.097 0 .193 0 .289.004.04 0 .054-.011.033-.051-.037-.072-.072-.146-.108-.22a4.237 4.237 0 0 0-.407-.69 1.278 1.278 0 0 0-.162-.223c-.031-.047-.061-.093-.105-.13a1.685 1.685 0 0 0-.248-.278.245.245 0 0 0-.073-.074 1.821 1.821 0 0 0-.28-.246A2.535 2.535 0 0 0 8.02.759a2.17 2.17 0 0 0-.53-.166c-.076-.017-.1-.005-.1.08.003.775.002 1.55.002 2.324 0 .025-.012.054.013.075.077.014.153.008.23.003zm-6.722 0c.094 0 .188.002.283.004.033 0 .053-.008.068-.041.083-.188.169-.376.254-.563.136-.24.27-.478.422-.708a.086.086 0 0 0 .036-.051l.23-.302a.728.728 0 0 0 .122-.144l.208-.218a.789.789 0 0 0-.242.095 4.24 4.24 0 0 0-.656.355c-.013.007-.026.01-.04.019A6.291 6.291 0 0 0 2.25 2.805c-.071.084-.137.17-.217.27zm1.02 7.592l.164.319c.113.242.25.47.41.687.053.08.107.16.174.23a.435.435 0 0 0 .105.125c.07.102.158.187.247.269a.313.313 0 0 0 .089.085c.08.086.168.164.268.228.205.163.425.3.672.39.157.078.326.115.495.153.065.014.089-.001.088-.072-.004-.233-.002-.465-.002-.697 0-.548-.001-1.096.002-1.643 0-.062-.018-.082-.08-.08-.156.006-.312.005-.468.006zm-2.02 0c.149.2.298.376.458.543.275.288.566.557.896.78.013.02.03.03.053.038.092.079.196.143.3.203.214.14.437.263.672.362a.724.724 0 0 0 .24.094l-.204-.216-.076-.09-.27-.342v-.001a12.111 12.111 0 0 1-.447-.74c-.058-.122-.113-.246-.175-.366-.047-.088-.046-.223-.141-.26-.09-.035-.203-.006-.306-.005zm1.753-.682c.016.046.046.045.082.045l.53-.001 1.483-.003h.319c.162 0 .325 0 .486.005.064.002.079-.02.079-.081-.002-.893-.002-1.786 0-2.68 0-.06-.01-.088-.08-.087-1.106.002-2.211.002-3.317 0-.06 0-.076.02-.071.077.01.153.014.307.027.459.016.169.022.34.06.507.002.09.016.177.039.263a8.02 8.02 0 0 0 .363 1.496z"/></g></g></svg>