<svg xmlns="http://www.w3.org/2000/svg" width="92" height="95" viewBox="0 0 92 95"><g><g><path fill="#fff" d="M13.618 38.062c.47-1.612.94-3.225 1.406-4.838.19-.654.185-.655.885-.655h1.42c-.43 1.45-.845 2.853-1.259 4.257-.475 1.612-.959 3.22-1.417 4.839-.096.337-.242.448-.6.44-1.276-.03-1.272-.016-1.699-1.243-.507-1.455-1.02-2.906-1.58-4.495-.359 1.036-.675 1.942-.986 2.85-.292.853-.582 1.706-.862 2.563-.07.215-.172.31-.417.32-1.414.052-1.413.059-1.828-1.28l-2.473-7.965c-.022-.07-.035-.144-.069-.285.687 0 1.34-.018 1.99.017.107.006.25.225.296.37.507 1.635 1 3.273 1.497 4.909.026.085.06.166.13.354.377-1.123.725-2.15 1.067-3.178.227-.681.443-1.365.665-2.048.032-.102.06-.285.106-.291a12.994 12.994 0 0 1 1.511-.118c.114-.001.287.19.336.327.55 1.556 1.081 3.118 1.617 4.679.054.155.108.31.161.467z"/></g><g><path fill="#fff" d="M84.19 45.852c.712 0 1.399-.008 2.085 0 1.026.016 2.055.002 3.077.076.975.07 1.858.405 2.205 1.437.354 1.052.17 2.023-.634 2.836-.021.02-.033.05-.036.055.278.302.617.56.81.9.946 1.666.023 3.63-1.89 4.058a6.671 6.671 0 0 1-1.32.168c-1.42.02-2.843.007-4.296.007zm2.113 7.583c.97-.051 1.889-.061 2.797-.162.497-.055.694-.397.699-.873.006-.487-.275-.782-.698-.825-.92-.095-1.848-.11-2.798-.158zm-.006-3.923c.85 0 1.656.032 2.458-.012.48-.027.75-.365.755-.771.005-.437-.21-.77-.706-.806-.826-.061-1.66-.016-2.507-.016z"/></g><g><path fill="#fff" d="M59.472 36.552v5.501h-2.05v-9.48c.513 0 1.014-.018 1.512.013.119.008.246.162.338.275 1.343 1.633 2.68 3.271 4.02 4.907.084.102.176.198.325.365v-5.526h2.053v9.481c-.505 0-.992.03-1.473-.016-.158-.016-.322-.208-.442-.354-1.372-1.67-2.735-3.347-4.102-5.02-.026-.034-.066-.056-.181-.146z"/></g><g><path fill="#fff" d="M41.715 55.387c-.885 0-1.67.01-2.456-.01-.1-.004-.216-.154-.293-.259-.612-.842-1.23-1.68-1.815-2.542-.22-.323-.45-.468-.857-.455-.978.032-.979.008-.979 1.01v2.23h-2.072v-9.432c.04-.027.065-.06.09-.06 1.577.016 3.158-.03 4.73.07 1.59.103 2.546.947 2.791 2.328.237 1.337-.213 2.681-1.606 3.391-.039.02-.069.057-.153.128l2.62 3.601zm-6.374-5.233c.387 0 .724.021 1.058-.004.53-.04 1.072-.05 1.581-.183.542-.14.753-.56.716-1.133-.03-.482-.273-.82-.827-.888-.826-.099-1.664-.097-2.528-.139z"/></g><g><path fill="#fff" d="M86.307 38.184v1.923h5.198v1.961h-7.306v-9.474h7.204v1.942h-5.09v1.779h4.74v1.869z"/></g><g><path fill="#fff" d="M64.485 55.38c-.105-.004-.238-.164-.298-.283a11.762 11.762 0 0 1-.501-1.132c-.101-.266-.244-.372-.54-.367-1.073.019-2.147.015-3.22.003-.264-.002-.423.068-.52.33a7.635 7.635 0 0 1-.495 1.135c-.084.149-.3.302-.463.312-.59.037-1.184.015-1.856.015.349-.806.665-1.546.988-2.283 1.007-2.297 2.022-4.591 3.019-6.892.123-.285.286-.341.58-.382.869-.122 1.299.199 1.643 1.035 1.119 2.73 2.347 5.416 3.532 8.119.047.107.082.22.148.403-.712 0-1.365.013-2.017-.013zm-4.17-3.59h2.413c-.36-.84-.698-1.64-1.04-2.436-.034-.078-.084-.15-.17-.3l-1.202 2.737z"/></g><g><path fill="#fff" d="M13.4 48.794c-1.59-1.575-3.491-1.13-4.365-.274-1.021 1-1.09 2.903-.113 4.03.64.739 1.49.99 2.442.925.948-.065 1.703-.53 2.352-1.242l1.242 1.33a3.883 3.883 0 0 1-2.058 1.605c-1.9.65-3.714.538-5.322-.78-.812-.666-1.245-1.577-1.433-2.601-.282-1.527-.077-2.966.879-4.228 1.69-2.236 5.387-2.53 7.35-.6.497.488.498.497.002.949l-.976.886z"/></g><g><path fill="#fff" d="M22.225 28.754c.01.306-.112.549-.469.59-.372.045-.589-.156-.645-.505-.376-2.356-.74-4.713-1.115-7.07-.478-3.018-.963-6.037-1.44-9.057-.414-2.612-.82-5.226-1.232-7.838-.195-1.24-.395-2.477-.593-3.715-.024-.151-.048-.302-.057-.455-.022-.35.158-.565.493-.601.34-.037.556.154.611.488.16.95.31 1.902.461 2.854.548 3.442 1.097 6.885 1.641 10.328.534 3.383 1.06 6.768 1.592 10.15.231 1.465.473 2.928.708 4.392.022.136.028.274.045.439z"/></g><g><path fill="#fff" d="M38.791 59.077l-.422 2.684c-.388 2.462-.773 4.924-1.165 7.385-.416 2.613-.842 5.223-1.257 7.836-.351 2.206-.693 4.412-1.039 6.619-.191 1.224-.379 2.448-.575 3.671-.072.453-.353.695-.695.621-.365-.078-.491-.342-.413-.83.565-3.595 1.124-7.191 1.693-10.785.599-3.776 1.209-7.55 1.81-11.325.293-1.842.574-3.686.862-5.529a4.1 4.1 0 0 1 .077-.359c.082-.319.319-.498.611-.406.219.069.384.307.513.418z"/></g><g><path fill="#fff" d="M31.488 87.125c.046.53-.157.733-.48.767-.325.033-.553-.133-.61-.485-.302-1.904-.611-3.806-.914-5.71-.355-2.234-.705-4.47-1.06-6.704a21501.5 21501.5 0 0 0-1.246-7.884l-1.14-7.202c-.03-.197-.061-.393-.082-.591-.04-.354.09-.623.46-.67.39-.05.594.189.655.555.099.604.189 1.209.286 1.813.42 2.642.842 5.284 1.259 7.927.413 2.613.819 5.227 1.23 7.84.41 2.598.825 5.196 1.237 7.793l.405 2.55z"/></g><g><path fill="#fff" d="M71.83 59.1c-.212 1.36-.4 2.568-.591 3.777-.48 3.036-.96 6.072-1.442 9.108-.477 3.006-.96 6.01-1.437 9.015-.322 2.023-.637 4.05-.955 6.073a6.75 6.75 0 0 1-.058.317c-.072.348-.272.551-.643.502-.35-.044-.52-.356-.455-.766.669-4.23 1.332-8.46 2.005-12.688.659-4.151 1.328-8.302 1.99-12.454.138-.861.263-1.723.396-2.585.019-.121.042-.242.08-.358.102-.305.34-.488.63-.378.216.08.368.328.48.437z"/></g><g><path fill="#fff" d="M64.554 87.295c.007.34-.171.562-.5.6-.333.035-.552-.15-.607-.492-.183-1.117-.366-2.233-.544-3.35-.578-3.625-1.157-7.248-1.73-10.873-.534-3.383-1.06-6.767-1.591-10.15-.19-1.209-.384-2.417-.57-3.626-.067-.435.104-.714.447-.765.334-.049.599.186.666.606.526 3.337 1.048 6.675 1.576 10.012.66 4.168 1.326 8.335 1.988 12.503.286 1.797.57 3.594.854 5.391.007.045.007.092.01.144z"/></g><g><path fill="#fff" d="M55.27 28.693c.031.366-.115.61-.488.65-.371.04-.57-.181-.624-.527-.404-2.523-.8-5.047-1.2-7.57l-1.349-8.474c-.472-2.977-.94-5.954-1.41-8.931-.144-.906-.29-1.813-.433-2.72-.015-.09-.022-.181-.034-.272-.046-.38.045-.704.475-.744.408-.038.577.22.64.617.728 4.67 1.467 9.34 2.21 14.009.567 3.566 1.145 7.13 1.713 10.696.174 1.088.334 2.177.5 3.266z"/></g><g><path fill="#fff" d="M42.462 28.71c.166-1.057.33-2.115.499-3.173.384-2.432.77-4.865 1.157-7.297.45-2.826.905-5.65 1.353-8.476.412-2.6.817-5.2 1.224-7.8.067-.422.127-.847.196-1.27.058-.355.23-.61.63-.593.35.015.546.298.483.74-.192 1.318-.4 2.633-.61 3.948-.415 2.629-.836 5.256-1.254 7.885a18200.725 18200.725 0 0 1-2.484 15.685c-.027.166-.061.33-.087.498-.06.372-.291.539-.648.486-.345-.05-.477-.297-.46-.632z"/></g><g><path fill="#fff" d="M75.513 28.675c.197-1.254.393-2.507.592-3.76l1.158-7.293 1.344-8.47c.443-2.795.885-5.589 1.324-8.383.073-.462.306-.714.648-.674.36.042.534.304.458.798-.315 2.071-.645 4.14-.971 6.208-.414 2.627-.827 5.255-1.243 7.882a12145.6 12145.6 0 0 1-1.33 8.38c-.288 1.811-.584 3.622-.867 5.435-.06.383-.255.596-.645.543-.371-.05-.5-.312-.468-.666z"/></g><g><path fill="#fff" d="M35.953 32.59h2.059v9.463h-2.059z"/></g><g><path fill="#fff" d="M1.05 42.924c-.214-.891.446-1.504 1.508-1.41.428.039.834.188 1.003.613.175.442.012.84-.337 1.156-.17.154-.345.302-.558.489l.84.926c.094-.225.128-.512.254-.56.223-.084.5-.023.836-.023-.074.372-.076.71-.212.98-.163.327-.1.53.14.753.153.14.278.31.416.467l-.048.147c-.405-.093-.807-.194-1.215-.273-.105-.02-.224.038-.337.049-.51.05-1.037.197-1.53.125-1.115-.161-1.516-1.385-.782-2.241.118-.138.248-.266.372-.398-.134-.3-.289-.538-.35-.8zm.926 1.386c-.314.315-.473.618-.246.998.192.32.656.37 1.27.123L1.975 44.31zm.676-1.946c-.054-.102-.45-.161-.544-.077-.325.287-.12.59.104.923.224-.28.678-.4.44-.846z"/></g><g><path fill="#fff" d="M55.898 93.087c0 1.138-.868 2-2.01 2-1.13 0-1.976-.866-1.98-2.025-.004-1.117.851-1.96 1.986-1.963 1.164-.002 2.005.833 2.004 1.988zm-2.032-1.14c-.615.01-1.067.493-1.064 1.138.002.638.505 1.168 1.11 1.17.604.002 1.078-.523 1.072-1.188-.007-.677-.459-1.13-1.118-1.12z"/></g><g><path fill="#fff" d="M21.025 91.167v.782h-2.037v.695h1.893v.785h-1.88v.751h2.058v.79h-2.958v-3.803z"/></g><g><path fill="#fff" d="M88.874 93.466v1.503h-.813v-3.802h.794v1.453h1.707v-1.45h.848v3.8h-.831c0-.36-.024-.71.006-1.054.035-.38-.122-.48-.474-.456-.394.026-.79.006-1.238.006z"/></g><g><path fill="#fff" d="M65.39 94.987h-.838v-3.799c.7 0 1.39-.067 2.064.017.833.105 1.21.623 1.156 1.376-.05.693-.584 1.173-1.373 1.215-.318.016-.638.002-1.008.002zm.009-2.012c.344 0 .65.022.95-.006.278-.027.505-.158.509-.487.004-.329-.222-.472-.495-.503-.312-.035-.632-.008-.964-.008z"/></g><g><path fill="#fff" d="M7.101 94.978h-.824v-3.794c.695 0 1.386-.066 2.058.016.822.1 1.212.63 1.159 1.376-.05.696-.582 1.178-1.368 1.22-.318.017-.639.003-1.025.003zm.025-2.002c.322 0 .623.016.921-.005.3-.02.53-.157.532-.502.001-.353-.257-.468-.54-.498-.295-.033-.597-.008-.913-.008z"/></g><g><path fill="#fff" d="M79.01 95.009c-.245.023-.415-.036-.478-.302-.08-.342-.313-.454-.652-.412a2.417 2.417 0 0 1-.55.002c-.394-.043-.646.054-.8.475-.17.466-.596.147-.98.243.141-.34.247-.605.361-.867.391-.897.787-1.792 1.176-2.69.09-.211.19-.344.464-.335.255.008.37.092.467.322.437 1.027.896 2.044 1.345 3.066.066.15.116.307.187.495-.206 0-.375-.013-.54.003zm-.983-1.453l-.484-1.096c-.182.424-.318.739-.47 1.096z"/></g><g><path fill="#fff" d="M32.726 93.76l.472.503c-.485.721-1.371.991-2.305.731-.77-.213-1.283-.914-1.318-1.796-.037-.929.473-1.71 1.306-2.004.83-.292 1.74-.05 2.266.631-.178.167-.36.34-.538.506-.733-.504-1.435-.513-1.842-.04a1.217 1.217 0 0 0 .027 1.595c.487.52 1.14.49 1.932-.126z"/></g><g><path fill="#fff" d="M42.822 91.957v3.007h-.883v-3h-1.2v-.797H44v.79z"/></g></g></svg>