<svg xmlns="http://www.w3.org/2000/svg" width="81" height="64" viewBox="0 0 81 64"><defs><linearGradient id="dk8oa" x1="68.53" x2="-4.25" y1="17.58" y2="54.66" gradientUnits="userSpaceOnUse"><stop offset="0" stop-color="#e12c3d"/><stop offset=".12" stop-color="#e12c3d"/><stop offset=".47" stop-color="#9e4e80"/><stop offset=".72" stop-color="#415397"/><stop offset="1" stop-color="#415397"/></linearGradient></defs><g><g><path fill="url(#dk8oa)" d="M23.076 23.221c-.153.048-.297.07-.434.07-1.221 0-1.713-1.828-.406-2.306 1.646-.6 2.194 1.798.84 2.236zm3.977-1.028c-.209.124-.42.179-.618.179-1.039 0-1.743-1.497-.566-2.232 1.395-.869 2.553 1.254 1.184 2.053zm-6.068-2.347c-.151.048-.296.07-.433.07-1.229 0-1.788-1.813-.306-2.329 1.464-.51 2.116 1.814.739 2.259zm6.301-1.516a1.4 1.4 0 0 1-.456.081c-1.242 0-1.637-1.967-.328-2.349 1.656-.483 2.147 1.797.784 2.268zm-3.685-1.516a1.26 1.26 0 0 1-.51.115c-1.118 0-1.744-1.68-.465-2.268 1.57-.718 2.347 1.549.975 2.153zm-8.495-5.412c-.743-.083-3.715-1.996-7.242.119-4.499 2.698-4.672 8.916-.867 11.938 1.551 1.233 3.344 1.732 5.299 1.545.632-.06 1.31-.352 1.847-.372-.178.528-2.859 2.486-2.224 6.656 1.002 6.591 9.847 8.417 13.322 2.493a7.12 7.12 0 0 0 .693-1.624c.14-.497.205-1.657.395-1.974.234.197.636 1.302 1.536 2.3 1.741 1.938 4.701 2.771 7.218 2.005.829-.252.699-.424 1.112.28.673 3.367.683 5.19-.553 8.465-.831 2.203-2.225 4.372-3.837 6.076-2.754 2.917-7.973 6.915-11.631 8.103l-.043-.317c.85-.09 3.286-3.056 3.841-3.851 2.798-4.016 1.765-8.453-.979-10.404-3.31-2.352-8.55-.257-9.607 3.577-.735 2.665.651 5.497 3.089 5.715 2.608.215 3.937-3.045 2.147-4.141-.745-.456-2.863-.157-2.423-1.305.355-.92 2.082-.923 2.879-.62 4.568 1.721 2.74 12.695-11.772 15.096a37.609 37.609 0 0 1-3.539.42c-.619.045-3.161.047-3.532.308-.454.323-.44 1.071.011 1.41.654.498 4.451.437 5.307.377 6.912-.492 14.013-2.874 19.972-6.44 4.759-2.848 9.688-7.687 14.004-11.346 4.328-3.435 11.784-8.032 17.068-8.663 1.825-.218 3.062-.023 4.816.319 2.423.931 4.626 2.182 5.406 4.891 1.615 5.611-4.24 10.489-10.734 8.949-1.213-.286-2.552-.914-3.544-1.673-.638-.485-2.385-2.63-2.515-2.653-.678 1.965 1.803 6.035 3.081 7.539 11.405 13.355 32.09 1.006 26.443-15.052-3.789-10.769-15.451-12.022-24.966-8.509-4.096 1.515-7.574 3.849-11.08 6.705-1.608 1.311-3.629 3.461-4.965 5.037l-.227-.081c.441-1.455.692-3.269.69-4.788-.003-1.033-.288-3.815-.963-4.534.002-1.342.81-.801 1.755-3.269a7.373 7.373 0 0 0 .232-4.44c-.49-1.832-1.631-3.413-3.254-4.383-.411-.245-1.484-.564-1.714-.878.353-.191 1.249-.344 1.752-.546a7.286 7.286 0 0 0 1.471-.809 7.208 7.208 0 0 0 2.172-2.515 7.307 7.307 0 0 0-.317-7.343c-2.695-4.253-8.628-4.289-11.485-.8-1.279 1.557.117-.586-.776-3.386-.33-1.039-.915-2.05-1.667-2.825-1.516-1.561-3.344-2.245-5.12-2.245-3.977 0-7.709 3.417-7.186 8.064.191 1.709.737 2.057 1.204 3.399z"/></g><g><path fill="#435397" d="M44.456 34.252c.416.15 1.016-.594 1.351-.86 6.796-5.428 17.191-9.158 25.873-8.27.48.05 1.756.3 2.11.244.327-1.023-2.364-1.996-3.153-2.23-1.764-.524-3-.538-4.784-.69-3.332-.28-6.699.15-9.87 1.192-2.506.824-5.106 2.315-7.027 4.127-.955.9-1.845 1.838-2.61 2.913-.415.584-2.056 2.973-1.89 3.573z"/></g><g><path fill="#e12c3d" d="M43.285 32.081c.365-.052 1.302-1.728 1.604-2.129 3.3-4.379 8.857-7.967 14.276-9.08.58-.119 3.17-.402 3.395-.546.12-1.506-5.819-1.68-6.838-1.552-5.3.671-10.749 4.357-12.184 9.506-.226.814-.703 3.136-.253 3.801z"/></g></g></svg>