<svg xmlns="http://www.w3.org/2000/svg" width="48" height="51" viewBox="0 0 48 51"><g><g><path fill="#5b1a36" d="M6.809 20.227c.247-.849.495-1.696.74-2.546.1-.345.097-.345.466-.345h.746c-.224.764-.443 1.502-.661 2.241-.25.848-.505 1.695-.746 2.546-.051.178-.127.237-.316.232-.671-.016-.67-.008-.894-.654-.267-.766-.538-1.53-.832-2.366a152.475 152.475 0 0 0-.973 2.849c-.037.113-.09.163-.22.168-.744.027-.743.031-.96-.673-.434-1.397-.87-2.795-1.302-4.192-.012-.037-.02-.076-.036-.151.36 0 .705-.008 1.047.01.056.003.13.118.155.195.267.86.526 1.722.788 2.583.014.044.032.087.068.186.199-.591.382-1.131.562-1.672.12-.358.233-.719.349-1.078.018-.054.033-.15.057-.153a6.65 6.65 0 0 1 .795-.062c.06-.001.15.1.177.172.29.818.569 1.641.85 2.462l.086.246.054.002z"/></g><g><path fill="#5b1a36" d="M43.953 24.326c.373 0 .734-.004 1.095.001.54.008 1.083.001 1.62.04.514.036.979.213 1.162.756.186.554.089 1.065-.334 1.492-.012.012-.019.028-.02.03.148.16.325.295.428.474.496.876.01 1.91-.996 2.135a3.463 3.463 0 0 1-.694.09c-.748.01-1.497.003-2.261.003zm1.11 3.991c.512-.026.994-.032 1.473-.085.261-.028.365-.208.368-.458.003-.257-.146-.413-.368-.435-.485-.05-.973-.058-1.473-.083zm-.003-2.064c.447 0 .872.017 1.294-.007a.397.397 0 0 0 .397-.405c.003-.23-.11-.404-.372-.424-.434-.032-.874-.009-1.319-.009z"/></g><g><path fill="#5b1a36" d="M30.942 19.433v2.895h-1.079v-4.99c.27 0 .533-.009.796.007.062.004.13.086.178.145.707.86 1.411 1.721 2.116 2.583.044.053.092.104.171.192v-2.908h1.08v4.99c-.266 0-.523.015-.776-.01-.083-.008-.169-.109-.232-.185-.722-.88-1.44-1.762-2.159-2.643-.014-.017-.034-.029-.095-.076z"/></g><g><path fill="#5b1a36" d="M21.596 29.346c-.465 0-.878.005-1.292-.006-.053-.002-.114-.08-.155-.136-.32-.443-.646-.884-.955-1.338-.115-.17-.237-.246-.45-.239-.516.017-.516.004-.516.53v1.174h-1.09v-4.964c.021-.014.034-.03.047-.03.83.008 1.662-.017 2.49.036.837.054 1.34.498 1.468 1.226.125.703-.112 1.41-.844 1.784-.022.011-.037.03-.08.067l1.377 1.896zm-3.354-2.755c.203 0 .381.011.557-.002.278-.02.564-.026.832-.096.285-.074.396-.295.377-.596-.016-.254-.144-.432-.436-.467-.434-.053-.876-.052-1.33-.074z"/></g><g><path fill="#5b1a36" d="M45.065 20.291v1.013h2.736v1.031h-3.845V17.35h3.792v1.022H45.07v.937h2.495v.983z"/></g><g><path fill="#5b1a36" d="M33.58 29.342c-.054-.003-.124-.087-.156-.149a6.584 6.584 0 0 1-.264-.596c-.053-.14-.127-.196-.284-.193-.565.01-1.13.007-1.695.002-.14 0-.223.035-.272.173a4.076 4.076 0 0 1-.262.597.361.361 0 0 1-.243.165c-.311.02-.623.008-.977.008.183-.425.35-.815.52-1.202.53-1.209 1.063-2.416 1.589-3.628.064-.15.15-.179.305-.2.457-.065.684.104.865.545.587 1.436 1.234 2.85 1.858 4.272.025.057.044.116.079.213-.375 0-.72.007-1.062-.007zm-2.193-1.89h1.269c-.19-.442-.367-.863-.547-1.282-.018-.04-.044-.079-.09-.158l-.632 1.44z"/></g><g><path fill="#5b1a36" d="M6.694 25.875c-.837-.829-1.838-.595-2.298-.145-.537.527-.573 1.53-.059 2.123.336.388.785.52 1.285.486.5-.033.896-.278 1.238-.652l.653.699c-.264.413-.633.69-1.083.844-1 .343-1.955.285-2.8-.41-.428-.35-.656-.83-.755-1.37-.149-.803-.04-1.56.463-2.224.89-1.176 2.835-1.33 3.87-.316.26.258.26.262 0 .5l-.514.466z"/></g><g><path fill="#5b1a36" d="M11.339 15.329c.005.16-.06.288-.247.31-.195.024-.311-.082-.34-.266-.197-1.24-.39-2.48-.586-3.72-.252-1.59-.508-3.178-.76-4.767L8.76 2.76c-.104-.652-.21-1.303-.313-1.955-.012-.08-.025-.16-.03-.24-.012-.183.083-.298.26-.316.179-.02.292.08.32.257.085.5.164 1.002.243 1.502.289 1.812.578 3.624.865 5.436.28 1.78.557 3.562.838 5.342.12.772.249 1.54.372 2.312.01.07.015.144.024.23z"/></g><g><path fill="#5b1a36" d="M20.058 31.288l-.223 1.413c-.204 1.295-.406 2.592-.613 3.887-.22 1.375-.442 2.749-.661 4.124-.185 1.16-.364 2.322-.547 3.483-.101.645-.2 1.289-.303 1.933-.038.238-.185.365-.365.327-.192-.041-.258-.181-.218-.437.298-1.892.592-3.785.892-5.676.314-1.988.636-3.974.952-5.961.154-.97.303-1.94.454-2.91.01-.064.025-.126.04-.19.043-.167.168-.262.32-.213.117.036.204.16.272.22z"/></g><g><path fill="#5b1a36" d="M16.214 46.05c.024.278-.083.386-.253.403-.171.018-.291-.07-.32-.256-.16-1-.323-2.002-.482-3.003-.187-1.177-.371-2.353-.557-3.53l-.657-4.149-.6-3.79a6.288 6.288 0 0 1-.043-.312c-.021-.186.048-.328.243-.352.205-.027.313.1.344.292.052.317.1.635.15.954.222 1.39.444 2.781.663 4.172.218 1.376.43 2.751.648 4.127l.65 4.101.214 1.343z"/></g><g><path fill="#5b1a36" d="M37.446 31.3l-.31 1.987c-.253 1.6-.505 3.197-.759 4.794-.252 1.582-.506 3.163-.757 4.744-.169 1.066-.335 2.132-.503 3.198a4.82 4.82 0 0 1-.03.166c-.038.183-.144.291-.339.265-.184-.024-.274-.188-.24-.404.353-2.226.702-4.452 1.056-6.678.347-2.184.7-4.37 1.048-6.554.072-.454.138-.908.208-1.36a1.19 1.19 0 0 1 .042-.189c.054-.16.18-.257.332-.199.113.042.192.172.252.23z"/></g><g><path fill="#5b1a36" d="M33.617 46.14c.004.18-.09.296-.264.314-.174.02-.29-.078-.319-.257-.097-.588-.192-1.176-.286-1.764-.304-1.907-.609-3.815-.91-5.723-.282-1.78-.559-3.56-.838-5.342-.1-.636-.202-1.272-.3-1.908-.035-.228.055-.376.235-.402.176-.026.316.098.351.318.276 1.756.551 3.514.83 5.27.347 2.193.697 4.387 1.046 6.58l.45 2.838c.003.023.003.048.005.075z"/></g><g><path fill="#5b1a36" d="M28.731 15.296c.016.192-.062.321-.258.343-.195.02-.3-.096-.328-.279-.212-1.328-.42-2.656-.632-3.984l-.71-4.46-.742-4.7-.227-1.43c-.008-.049-.012-.097-.018-.145-.024-.2.023-.37.25-.392.215-.019.304.117.336.325.384 2.458.772 4.916 1.164 7.373.298 1.877.603 3.753.901 5.63.092.573.176 1.146.264 1.72z"/></g><g><path fill="#5b1a36" d="M21.99 15.306l.262-1.67c.203-1.28.405-2.56.61-3.842.235-1.487.476-2.973.711-4.46.217-1.369.43-2.737.645-4.105.035-.223.066-.446.102-.669.031-.187.121-.32.332-.313.184.008.288.158.254.39-.1.693-.21 1.386-.32 2.078l-.66 4.151-.703 4.437-.605 3.817c-.015.087-.032.174-.046.262-.03.195-.152.283-.34.256-.182-.026-.252-.156-.243-.332z"/></g><g><path fill="#5b1a36" d="M39.385 15.287l.312-1.98.609-3.837.708-4.458c.232-1.471.466-2.942.696-4.413.039-.243.16-.375.342-.354.189.022.28.16.24.42-.165 1.09-.34 2.179-.511 3.268l-.654 4.148c-.232 1.47-.466 2.94-.7 4.41-.151.953-.307 1.906-.456 2.86-.032.203-.135.315-.34.287-.195-.026-.263-.164-.246-.351z"/></g><g><path fill="#5b1a36" d="M18.563 17.347h1.084v4.98h-1.084z"/></g><g><path fill="#5b1a36" d="M.194 22.787c-.113-.47.235-.792.794-.743.225.021.439.099.528.323.092.232.006.442-.178.608-.09.081-.18.159-.293.257l.442.488c.049-.118.068-.269.133-.295.118-.044.264-.011.44-.011-.038.195-.04.373-.11.515-.086.172-.054.279.073.397.08.073.146.163.219.246-.01.025-.017.051-.026.077-.213-.049-.425-.103-.64-.144-.054-.01-.117.019-.176.026-.27.026-.546.103-.806.065-.587-.085-.798-.728-.411-1.18.06-.072.13-.139.196-.208-.071-.158-.152-.284-.185-.421zm.488.728c-.166.166-.25.326-.13.526.102.168.346.195.668.065l-.538-.591zm.355-1.023c-.028-.054-.236-.085-.286-.041-.171.151-.063.31.055.486.118-.147.357-.21.23-.445z"/></g><g><path fill="#5b1a36" d="M29.061 49.188a1.035 1.035 0 0 1-1.057 1.052c-.595 0-1.04-.456-1.042-1.066-.002-.587.447-1.032 1.045-1.032.612 0 1.055.437 1.054 1.046zm-1.069-.6c-.324.005-.56.26-.56.6.002.335.265.613.585.615.317.001.567-.276.563-.626-.003-.356-.24-.595-.588-.589z"/></g><g><path fill="#5b1a36" d="M10.707 48.177v.412H9.635v.365h.997v.413h-.99v.396h1.084v.415H9.168v-2z"/></g><g><path fill="#5b1a36" d="M46.417 49.387v.791h-.428v-2h.418v.764h.899v-.763h.446v2h-.438c0-.189-.012-.373.003-.555.019-.2-.064-.253-.25-.24-.206.014-.415.003-.65.003z"/></g><g><path fill="#5b1a36" d="M34.057 50.188h-.44V48.19c.367 0 .731-.036 1.085.008.438.055.636.328.608.724-.026.365-.308.618-.722.64-.168.008-.336.001-.53.001zm.005-1.059c.182 0 .343.012.5-.004.146-.014.266-.083.269-.256.001-.173-.119-.248-.262-.264-.165-.019-.333-.004-.508-.004z"/></g><g><path fill="#5b1a36" d="M3.379 50.183h-.433v-1.997c.365 0 .728-.035 1.083.008.432.052.637.332.609.724-.025.366-.306.62-.72.643-.167.008-.336.001-.54.001zm.013-1.054c.17 0 .328.01.485-.003.158-.01.279-.082.28-.264 0-.186-.135-.247-.285-.262-.155-.017-.314-.004-.48-.004z"/></g><g><path fill="#5b1a36" d="M41.226 50.2c-.129.011-.219-.019-.252-.16-.042-.179-.164-.238-.343-.216a1.34 1.34 0 0 1-.29.001c-.207-.023-.34.028-.42.25-.09.245-.315.077-.517.128.074-.179.131-.319.191-.456.206-.473.414-.944.618-1.416.048-.112.1-.181.245-.177.134.005.194.049.245.17.231.54.473 1.076.708 1.613.035.079.062.162.1.261-.11 0-.199-.007-.285.002zm-.518-.765l-.255-.577-.247.577z"/></g><g><path fill="#5b1a36" d="M16.865 49.542l.248.265c-.255.38-.722.521-1.213.384-.404-.112-.675-.48-.693-.945-.02-.489.25-.9.687-1.055a1.055 1.055 0 0 1 1.193.332c-.094.088-.19.18-.284.267-.385-.265-.755-.27-.969-.02a.64.64 0 0 0 .014.837c.256.276.6.26 1.017-.064z"/></g><g><path fill="#5b1a36" d="M22.179 48.593v1.583h-.464v-1.579h-.632v-.419h1.716v.415z"/></g></g></svg>